<svg xmlns="http://www.w3.org/2000/svg" xmlns:xlink="http://www.w3.org/1999/xlink">
    <symbol id="logo" viewBox="0 0 560 115">
        <g clip-path="url(#a)">
            <path fill="#626262"
                  d="M62.247-.464C58.99.133 57.09.876 55.034 2.361c-1.146.832-2.798 2.543-3.596 3.747C50.225 7.942 1.753 92.12 1.371 93.067c-.214.517-.54 1.53-.73 2.25-.326 1.25-.349 1.43-.349 3.511-.011 2.104 0 2.25.337 3.544.64 2.442 1.382 4.006 2.81 5.874 2.55 3.331 6.83 5.525 11.224 5.739 2.045.101 4.719-.394 6.719-1.26 2.348-1.013 5-3.23 6.393-5.345.46-.709 38.214-66.086 48.697-84.326 1.213-2.115 1.663-3.184 2.157-5.131.281-1.08.304-1.362.292-3.376 0-2.16-.01-2.217-.404-3.736-1.09-4.13-3.573-7.336-7.36-9.497C70.112.718 68.753.212 67.191-.16c-.921-.214-1.55-.281-2.921-.315-.955-.022-1.865-.011-2.023.011Zm4.393 5.21c1.888.597 3.484 1.576 4.73 2.926 1 1.08 1.675 2.228 2.214 3.758l.405 1.148v1.97c0 2.317-.146 2.925-1.113 4.781-.82 1.576-48.618 84.45-49.224 85.361-1.281 1.891-3.596 3.5-5.922 4.108-1.606.405-3.977.315-5.562-.225-3.359-1.148-5.662-3.567-6.73-7.101-.168-.54-.213-1.057-.213-2.588 0-2.16.146-2.824.955-4.445.595-1.181 48.775-84.73 49.393-85.653.663-.98 2.056-2.307 3.056-2.903 1.011-.597 2.315-1.114 3.337-1.306 1.169-.225 3.708-.135 4.674.17Zm36.45-4.928c-3.64.405-6.888 1.901-9.337 4.32-1.382 1.362-1.933 2.195-4.82 7.202-1.472 2.532-5.607 9.7-9.191 15.922-3.585 6.223-6.663 11.613-6.832 11.984-.45.99-.843 2.34-1.123 3.781-.203 1.091-.236 1.542-.18 3.027.045 1.508.101 1.947.45 3.263.426 1.677.842 2.746 1.539 3.938 2.786 4.771 7.797 7.663 13.314 7.663.832 0 1.64-.033 1.82-.067.169-.045.427-.09.573-.124l.248-.045v19.096c0 11.837.045 19.556.112 20.288.146 1.541.663 3.657 1.213 4.917.742 1.733 2.214 3.77 3.675 5.12 2.854 2.622 6.854 4.062 10.775 3.882 2.483-.113 4.966-.844 6.977-2.048 3.776-2.262 6.079-5.502 7.158-10.071l.258-1.069.023-43.547c.033-43.176.033-43.547-.191-44.807-.607-3.387-1.899-5.896-4.259-8.248-2.303-2.296-4.944-3.657-8.157-4.22-1.247-.214-2.978-.281-4.045-.157Zm4.382 5.31c1.82.597 3.315 1.542 4.562 2.848 1.09 1.159 1.843 2.475 2.404 4.208.292.889.315 1.091.326 2.926.011 2.205-.123 2.846-.91 4.444-.809 1.655-18.393 31.991-18.865 32.565l-.506.608.045-19.68c.034-21.808-.022-20.165.775-22.056 1.124-2.644 3.27-4.714 5.922-5.67 1.337-.496 1.741-.552 3.663-.519 1.472.023 1.797.068 2.584.327Zm-17.921 32.87v17.71l-.81.136c-.494.09-1.415.123-2.381.09-1.337-.045-1.72-.102-2.484-.36-3.471-1.193-5.809-3.545-6.977-7.045-.303-.911-.315-1.057-.315-2.982 0-1.912.012-2.07.304-2.903.168-.483.46-1.192.651-1.575.405-.81 11.91-20.783 11.967-20.783.022 0 .045 7.966.045 17.711Zm25.168 62.259c-.371 3.308-2.562 6.324-5.674 7.809-1.719.833-2.27.945-4.438.934-1.719 0-1.922-.022-2.809-.315-1.922-.641-3.157-1.429-4.573-2.914-1.472-1.564-2.438-3.702-2.618-5.784-.045-.608-.09-10.094-.101-21.076V58.938l1.011-.675c1.236-.822 2.764-2.284 3.63-3.455.595-.821 1.808-2.892 11.37-19.466l4.258-7.393.034 35.636c.023 24.362 0 35.963-.09 36.672Z"/>
            <path fill="#626262"
                  d="M67.977 60.468c-1.247.147-3.415.71-4.483 1.16-2.618 1.102-5.112 3.162-6.651 5.48-1 1.496-14.147 24.361-14.551 25.306-1.247 2.87-1.596 6.11-1 9.058.63 3.151 1.865 5.537 3.977 7.742 2.09 2.172 4.293 3.443 7.428 4.276 1.235.338 1.381.349 3.595.349 2.292 0 2.303 0 3.854-.405 3.72-.99 6.753-3.117 8.831-6.2.506-.765 13.124-22.573 14.068-24.328.584-1.07 1.056-2.408 1.427-3.939.258-1.09.292-1.474.292-3.206 0-2.116-.146-3.016-.798-5.008-1.292-3.96-4.54-7.46-8.472-9.126-1.618-.686-4.651-1.305-6.168-1.271-.281.011-.888.056-1.349.112Zm2.697 4.94c3.809.405 7.124 2.993 8.55 6.695.9 2.307.877 5.12-.033 7.382-.393 1.002-13.73 24.249-14.506 25.296-1.292 1.755-3.056 3.004-5.303 3.78-.787.271-1.124.316-2.64.361-1.978.067-2.776-.057-4.225-.642-2.697-1.069-4.787-3.173-5.877-5.919-.573-1.429-.73-2.408-.651-4.32.056-1.722.303-2.679 1.067-4.164.877-1.688 13.764-23.923 14.191-24.485 1.63-2.127 4.382-3.702 6.91-3.972 1.247-.135 1.326-.135 2.517-.012Z"/>
        </g>
        <path fill="#fff"
              d="M169.36 25h11.12l17.84 44.48L216.16 25h11.12v56h-10.24V46.76l-2.72 8.56L203.36 81h-10.08l-10.96-25.68-2.72-8.56V81h-10.24V25Zm78.752 56V38.04c-3.12 3.04-6.64 3.76-11.76 3.76v-9.76c6.48 0 10-2.4 12.4-7.04h9.92v56h-10.56Zm38.634 0 22.4-56h6.88l22.4 56h-7.12l-6.4-16.48h-24.64l-6.4 16.48h-7.12Zm15.76-22.24h20.16l-8.56-22.08c-.56-1.28-1.2-3.12-1.52-4.24-.32 1.12-.96 2.96-1.52 4.24l-8.56 22.08Zm48.416 26.4c-.08.48-.16 1.12-.16 1.76 0 3.6 4.16 6.16 10.72 6.16 8.16 0 12.56-4.8 12.56-14.4v-5.6c-2.72 4.4-7.04 7.28-13.36 7.28-10.4 0-18.56-7.68-18.56-20.08 0-12.72 8.64-20.08 18.56-20.08 6.32 0 10.88 2.8 13.36 6.8v-5.68h6.48v37.04c0 12.56-7.12 20.08-19.04 20.08-11.68 0-17.2-5.28-17.2-11.68 0-.8.16-1.68.32-2.4l6.32.8Zm10.56-39.36c-7.76 0-12.96 5.52-12.96 14.48s5.2 14.48 12.96 14.48c7.76 0 13.04-5.52 13.04-14.48s-5.28-14.48-13.04-14.48Zm33.599 16.4c.4 8.08 5.6 14.4 13.6 14.4 6.8 0 9.76-3.28 12.48-7.04l4.88 2.72c-3.44 5.76-8.72 9.84-17.6 9.84-10.88 0-19.68-8.64-19.68-20.96s8.88-20.96 20-20.96c11.68 0 19.04 8.24 19.04 19.84v2.16h-32.72Zm13.6-16.8c-6.88 0-12.32 5.04-13.6 11.6h26.24c-.4-7.6-6.16-11.6-12.64-11.6ZM470.713 81h-6.48V55.72c0-6.24-3.84-9.68-9.6-9.68-6.16 0-11.6 5.6-11.6 13.28V81h-6.48V41.32h6.48v7.04c2.88-4.96 8-8.16 13.76-8.16 7.6 0 13.92 4.4 13.92 13.84V81Zm45.724-8.96c-3.44 6.08-9.12 10.08-17.2 10.08-11.68 0-20.32-8.72-20.32-20.96 0-12.32 9.28-20.96 20.32-20.96 8.4 0 14.16 3.76 17.2 10l-5.2 3.12c-2.72-4.8-7.04-7.2-11.92-7.2-7.68 0-13.84 5.76-13.84 15.04 0 9.12 5.92 15.04 13.84 15.04 6.08 0 9.44-2.88 12.24-7.12l4.88 2.96Zm9.266 19.04c.96.48 1.84.8 3.12.8 2.24 0 3.76-1.28 4.88-4.08l2.64-6.72-16.24-39.76h7.28l12.4 31.04 12.32-31.04h7.12l-19.84 48.48c-2.24 5.6-5.36 8-10.4 8-1.6 0-3.12-.24-4.4-.72l1.12-6Z"/>
        <defs>
            <clipPath id="a">
                <path fill="#fff" d="M0 0h120v115H0z"/>
            </clipPath>
        </defs>
    </symbol>

    <symbol id="arrow-down" viewBox="0 0 32 32">
        <path fill="#07041C" d="M30 4 19 28h-6L2 4h7l7 15 7-15h7Z"/>
    </symbol>

    <symbol id="arrow-right" viewBox="0 0 64 64">
        <g clip-path="url(#a)">
            <path fill="#00A9FF" fill-rule="evenodd"
                  d="M31.544 0C50.382 0 64 14.531 64 31.544 64 50.382 50.382 64 31.544 64 14.53 64 0 50.382 0 31.544 0 14.53 14.531 0 31.544 0Z"
                  clip-rule="evenodd"/>
            <path fill="#fff" d="m22 18 24 11v6L22 46v-7l15-7-15-7v-7Z"/>
        </g>
        <defs>
            <clipPath id="a">
                <path fill="#fff" d="M0 0h64v64H0z"/>
            </clipPath>
        </defs>

    </symbol>

    <symbol id="scroll-down" viewBox="0 0 100 230">
        <path fill="#626262"
              d="M35.047 3.196c-13.925 4.697-24.3 13.716-30 26.022C.374 39.552 0 42.934 0 76.472c0 32.411.467 36.826 4.673 46.69 6.729 15.877 23.738 27.338 42.056 28.371 23.177 1.41 43.458-12.494 50.935-34.759C100 109.728 100 109.54 100 76.942c0-35.699-.28-37.953-5.514-48.663C83.738 6.578 57.757-4.414 35.046 3.196Zm24.86 11.837c10.84 3.288 18.785 9.676 23.177 18.507 4.58 9.112 4.953 12.964 4.58 46.126-.374 33.726-.468 34.196-7.01 43.778-7.103 10.428-18.224 15.595-32.523 15.031-7.664-.282-9.252-.657-15.701-3.852-8.224-4.133-12.617-8.642-16.916-17.567l-2.897-6.106V76.66c0-33.632 0-34.383 2.15-39.644 6.822-16.91 27.943-27.244 45.14-21.983Z"/>
        <path fill="#626262"
              d="M45.42 33.352c-1.495 1.597-1.962 8.267-1.588 21.889.093 2.442 3.458 5.449 6.168 5.449 1.215 0 3.084-.94 4.206-2.067 1.682-1.785 1.869-3.288 1.869-12.683 0-9.394-.187-10.803-1.87-12.494-2.336-2.349-6.728-2.443-8.785-.094ZM23.832 166.376c-4.112 4.133-3.365 5.637 10.56 19.54 10.842 10.898 13.272 12.871 15.702 12.871 2.336 0 4.766-1.973 15.607-12.965 7.01-7.139 12.804-13.528 12.804-14.185 0-2.443-2.99-6.67-5.047-7.234-3.177-.751-4.58.188-14.58 10.334l-8.784 9.019-10-9.865c-10.748-10.615-12.43-11.461-16.262-7.515Z"/>
        <path fill="#626262"
              d="M23.364 197.096c-3.738 4.04-2.71 5.825 10.935 19.728 9.907 9.958 13.364 12.965 15.234 12.965 1.682 0 5.607-3.195 15.046-12.495 7.01-6.764 13.085-13.434 13.458-14.655.935-3.006-2.15-7.046-5.607-7.422-2.243-.282-4.019 1.034-12.524 9.582L50 214.758l-9.813-9.865c-10.56-10.709-13.084-11.837-16.823-7.797Z"/>
    </symbol>

    <symbol id="download" viewBox="0 0 72 90">
        <g clip-path="url(#a)">
            <path fill="#fff"
                  d="M72 37.143v3.802c-2 6.553-8.82 4.803-14 4.995-.353.007-.57.183-.65.526a1378.183 1378.183 0 0 0-4.4 18.89c-2.19 9.728-5.98 9.85-15.12 10.042-5.14.101-12.16.94-15.63-3.428-1.027-1.301-1.987-3.904-2.88-7.807-1.36-5.892-2.72-11.808-4.08-17.747a.745.745 0 0 0-.75-.577c-4.1.172-10.99 1.163-13.34-3.347-1.42-2.717-1.103-5.211.95-7.483A3375.567 3375.567 0 0 1 28.12 6.523c1.27-1.366 2.76-3.48 4.73-4.905 5.23-3.792 8.69 1.81 11.79 5.107A855.148 855.148 0 0 1 72 37.143Zm-6.89 1.395L36.43 7.352c-.24-.263-.48-.263-.72 0L7.78 38.184c-.62.681-.47 1.022.45 1.022l10.19.01c.53 0 1.044.18 1.46.512.416.332.708.797.83 1.318l5.93 25.433a2.937 2.937 0 0 0 1.021 1.638 2.88 2.88 0 0 0 1.809.637h13.59c1.553 0 2.507-.769 2.86-2.306l5.55-24.138a4.05 4.05 0 0 1 1.423-2.26 3.972 3.972 0 0 1 2.507-.864l9.38.09c.68.007.79-.239.33-.738Z"/>
            <path fill="#fff"
                  d="M72 65.882v8.505c-.787 6.68-4.037 11.268-9.75 13.763-2 .87-4.75 1.31-8.25 1.324-12.487.047-24.987.071-37.5.071a11.81 11.81 0 0 1-3.22-.445C1.95 85.915-1.05 76.652.54 65.498a2.7 2.7 0 0 1 .864-1.626 2.644 2.644 0 0 1 1.696-.68l.51-.01c2.027-.054 3.053.94 3.08 2.983.06 3.944-.35 8.404 1.39 11.63 2.37 4.378 6.03 5.218 11.06 5.278 10.893.122 21.783.128 32.67.02 4.173-.047 7.067-.495 8.68-1.344 5.59-2.963 5.35-9 5.23-15.26-.07-3.782 5.11-4.854 6.28-.607Z"/>
        </g>
        <defs>
            <clipPath id="a">
                <path fill="#fff" d="M0 0h72v90H0z"/>
            </clipPath>
        </defs>
    </symbol>

    <symbol id="close" viewBox="0 0 64 64">
        <g clip-path="url(#a)">
            <path fill="#55506F"
                  d="M5.562.139C2.7.479.487 2.847.287 5.796.2 6.98.4 7.95.937 9.046c.388.768 1.388 1.814 11.376 11.868L23.25 31.937 12.2 43.087C.625 54.778.65 54.753.2 56.303c-.275.957-.263 2.683.037 3.653.588 1.902 1.963 3.238 3.85 3.73.9.239 3.013.239 3.863.012 1.6-.428 1.437-.277 13.05-11.981l10.938-11.024 11 11.074c11.612 11.691 11.337 11.44 12.95 11.906.962.29 3 .29 3.95.012 2.537-.73 4.162-2.96 4.162-5.72 0-1.36-.313-2.469-.95-3.439-.25-.365-5.375-5.606-11.4-11.653L40.688 31.899l10.95-11.074C62 10.356 62.6 9.726 62.938 8.945c1.037-2.394.537-5.178-1.238-6.929C60.325.656 59.1.189 57.087.277c-1.525.076-2.362.366-3.425 1.172-.4.302-5.45 5.317-11.212 11.137L31.95 23.17 21.038 12.22C13.288 4.447 9.938 1.17 9.462.907 8.312.24 6.95-.025 5.562.14Z"/>
        </g>
        <defs>
            <clipPath id="a">
                <path fill="#fff" d="M0 0h64v64H0z"/>
            </clipPath>
        </defs>
    </symbol>
</svg>